<svg xmlns="http://www.w3.org/2000/svg" width="40" height="40" viewBox="0 0 40 40" fill="none"><rect width="40" height="40" rx="8" fill="#FCE2C4"></rect><path d="M20.4377 18.3231C20.7276 17.4677 22.1116 14.0162 25.5664 14.0162C28.6381 14.0162 30.7551 16.5944 30.7551 19.6488C30.7551 23.1791 28.1177 25.4902 21.585 31.1457C20.9866 31.6637 20.0901 31.6643 19.4872 31.1514C13.8903 26.3903 10 23.6284 10 19.6488C10 16.5944 12.117 14.0162 15.1888 14.0162C18.6436 14.0162 20.0275 17.4677 20.3174 18.3231" stroke="#FF8300" stroke-width="2" stroke-miterlimit="10"></path><path d="M15.983 10.2461C15.983 11.4596 14.9993 12.4434 13.7858 12.4434C12.5722 12.4434 11.5885 11.4596 11.5885 10.2461C11.5885 9.03257 12.5722 8 13.7858 8C14.9993 8 15.983 9.03257 15.983 10.2461Z" stroke="#FF8300" stroke-width="2" stroke-miterlimit="10"></path><path d="M22.5748 20.5C22.5748 21.7135 21.5911 22.6973 20.3776 22.6973C19.164 22.6973 18.1803 21.7135 18.1803 20.5C18.1803 19.2865 19.164 18.3027 20.3776 18.3027C21.5911 18.3027 22.5748 19.2865 22.5748 20.5Z" stroke="#FF8300" stroke-width="2" stroke-miterlimit="10"></path><path d="M29.1666 10.2461C29.1666 11.4596 28.1829 12.4434 26.9694 12.4434C25.7558 12.4434 24.7721 11.4596 24.7721 10.2461C24.7721 9.03257 25.7558 8 26.9694 8C28.1829 8 29.1666 9.03257 29.1666 10.2461Z" stroke="#FF8300" stroke-width="2" stroke-miterlimit="10"></path><path d="M12.9296 19.6211C12.9296 21.2454 14.3448 22.848 17.0803 25.23C17.7208 25.7877 17.7626 26.777 17.1621 27.3775C16.615 27.9246 15.7359 27.9476 15.152 27.44C15.1436 27.4327 15.1352 27.4254 15.1268 27.4181" stroke="#FF8300" stroke-width="2" stroke-miterlimit="10"></path><path d="M17.0465 25.2005C17.9923 24.5457 19.1401 24.1621 20.3776 24.1621C21.6509 24.1621 22.8293 24.5683 23.7903 25.2581" stroke="#FF8300" stroke-width="2" stroke-miterlimit="10"></path><path d="M25.6689 27.5016C25.6703 27.5045 25.6717 27.5074 25.673 27.5103L25.6976 27.488C25.1165 28.0162 24.2187 28.0032 23.6633 27.4479C23.0713 26.8559 23.1034 25.8823 23.723 25.3193C26.7633 22.5564 27.8255 21.1577 27.8255 19.6211" stroke="#FF8300" stroke-width="2" stroke-miterlimit="10"></path></svg>