<svg xmlns="http://www.w3.org/2000/svg" width="59" height="59" viewBox="0 0 59 59" fill="none"><rect width="58.6261" height="58.6261" rx="6" fill="white"></rect><path fill-rule="evenodd" clip-rule="evenodd" d="M19.1158 25.1258C20.345 20.7803 24.4421 17.5879 29.31 17.5879C34.1778 17.5879 38.2749 20.7803 39.5041 25.1258C43.1816 25.9562 45.9207 29.1556 45.9207 32.9773C45.9207 37.4293 42.2023 41.0383 37.6153 41.0383H21.0046C16.4177 41.0383 12.6992 37.4293 12.6992 32.9773C12.6992 29.1556 15.4383 25.9562 19.1158 25.1258ZM29.31 20.5192C25.5617 20.5192 22.4489 23.1716 21.86 26.648C21.7486 27.306 21.1934 27.8081 20.5092 27.8696C17.8233 28.111 15.7194 30.3065 15.7194 32.9773C15.7194 35.8104 18.0856 38.107 21.0046 38.107H37.6153C40.5343 38.107 42.9006 35.8104 42.9006 32.9773C42.9006 30.3065 40.7966 28.111 38.1107 27.8696C37.4265 27.8081 36.8713 27.306 36.7599 26.648C36.1711 23.1716 33.0582 20.5192 29.31 20.5192Z" fill="#C47221"></path></svg>