<svg xmlns="http://www.w3.org/2000/svg" width="40" height="40" viewBox="0 0 40 40" fill="none"><rect width="40" height="40" rx="8" fill="#FAC6A4"></rect><path fill-rule="evenodd" clip-rule="evenodd" d="M16.6413 10H23.3587C23.82 9.99998 24.2179 9.99997 24.5456 10.0278C24.8916 10.0572 25.2356 10.122 25.5667 10.2973C26.0607 10.5587 26.4622 10.9759 26.7139 11.4891C26.8826 11.8331 26.945 12.1906 26.9733 12.55C27 12.8905 27 13.3039 27 13.7832V26.2168C27 26.6961 27 27.1095 26.9733 27.45C26.945 27.8094 26.8826 28.1669 26.7139 28.5109C26.4622 29.0241 26.0606 29.4413 25.5667 29.7027C25.2356 29.878 24.8916 29.9428 24.5456 29.9722C24.2179 30 23.82 30 23.3587 30H16.6413C16.18 30 15.7821 30 15.4544 29.9722C15.1084 29.9428 14.7644 29.878 14.4333 29.7027C13.9394 29.4413 13.5378 29.0241 13.2861 28.5109C13.1174 28.1669 13.055 27.8094 13.0267 27.45C13 27.1095 13 26.6961 13 26.2169V13.7831C13 13.3039 13 12.8905 13.0267 12.55C13.055 12.1906 13.1174 11.8331 13.2861 11.4891C13.5378 10.9759 13.9394 10.5587 14.4333 10.2973C14.7644 10.122 15.1084 10.0572 15.4544 10.0278C15.7821 9.99997 16.18 9.99998 16.6413 10ZM21.75 11.8182H18.25V12.1818C18.25 12.4514 18.2507 12.5989 18.259 12.7049C18.2593 12.7091 18.2597 12.7131 18.26 12.7169C18.2636 12.7172 18.2675 12.7176 18.2716 12.7179C18.3736 12.7266 18.5155 12.7273 18.775 12.7273H21.225C21.4845 12.7273 21.6264 12.7266 21.7284 12.7179C21.7325 12.7176 21.7364 12.7172 21.74 12.7169C21.7403 12.7131 21.7407 12.7091 21.741 12.7049C21.7493 12.5989 21.75 12.4514 21.75 12.1818V11.8182ZM16.5 11.8182V12.1818C16.5 12.1915 16.5 12.2012 16.5 12.2108C16.5 12.4403 16.4999 12.6637 16.5148 12.8529C16.5312 13.0607 16.5697 13.306 16.6907 13.5527C16.8585 13.8948 17.1262 14.173 17.4555 14.3473C17.693 14.473 17.929 14.5131 18.129 14.5301C18.3112 14.5455 18.5263 14.5455 18.7471 14.5455C18.7564 14.5455 18.7657 14.5455 18.775 14.5455L21.2529 14.5455C21.4737 14.5455 21.6888 14.5455 21.871 14.5301C22.071 14.5131 22.307 14.473 22.5445 14.3473C22.8738 14.173 23.1415 13.8948 23.3093 13.5527C23.4303 13.306 23.4688 13.0607 23.4852 12.8529C23.5001 12.6637 23.5 12.4402 23.5 12.2108L23.5 11.8182C23.907 11.8187 24.1851 11.8214 24.4031 11.8399C24.6408 11.8601 24.729 11.8944 24.7722 11.9173C24.9369 12.0044 25.0707 12.1435 25.1546 12.3146C25.1767 12.3595 25.2096 12.4511 25.2291 12.698C25.2493 12.9556 25.25 13.294 25.25 13.8182V26.1818C25.25 26.706 25.2493 27.0444 25.2291 27.302C25.2096 27.5489 25.1767 27.6405 25.1546 27.6854C25.0707 27.8565 24.9369 27.9956 24.7722 28.0827C24.729 28.1056 24.6408 28.1399 24.4031 28.1601C24.1552 28.1811 23.8295 28.1818 23.325 28.1818H16.675C16.1705 28.1818 15.8448 28.1811 15.5969 28.1601C15.3592 28.1399 15.271 28.1056 15.2278 28.0827C15.0631 27.9956 14.9293 27.8565 14.8454 27.6854C14.8233 27.6405 14.7904 27.5489 14.7709 27.302C14.7507 27.0444 14.75 26.706 14.75 26.1818V13.8182C14.75 13.294 14.7507 12.9556 14.7709 12.698C14.7904 12.4511 14.8233 12.3595 14.8454 12.3146C14.9293 12.1435 15.0631 12.0044 15.2278 11.9173C15.271 11.8944 15.3592 11.8601 15.5969 11.8399C15.8149 11.8214 16.093 11.8187 16.5 11.8182Z" fill="#EF4136"></path></svg>