<svg xmlns="http://www.w3.org/2000/svg" width="40" height="40" viewBox="0 0 40 40" fill="none"><rect width="40" height="40" rx="8" fill="#C3EBFF"></rect><path fill-rule="evenodd" clip-rule="evenodd" d="M13.1615 11L13.6428 11C14.7266 11 15.6007 11 16.3086 11.0578C17.0375 11.1174 17.6777 11.2432 18.27 11.545C18.9535 11.8933 19.5442 12.3923 20 13C20.4558 12.3923 21.0465 11.8933 21.73 11.545C22.3223 11.2432 22.9625 11.1174 23.6914 11.0578C24.3993 11 25.2734 11 26.3572 11L26.8385 11C27.3657 11 27.8205 11 28.195 11.0306C28.5904 11.0629 28.9836 11.1342 29.362 11.327C29.9265 11.6146 30.3854 12.0735 30.673 12.638C30.8658 13.0164 30.9371 13.4096 30.9694 13.805C31 14.1795 31 14.6343 31 15.1614V23.8386C31 24.3657 31 24.8205 30.9694 25.195C30.9371 25.5904 30.8658 25.9836 30.673 26.362C30.3854 26.9265 29.9265 27.3854 29.362 27.673C28.9836 27.8658 28.5904 27.9371 28.195 27.9694C27.8205 28 27.3657 28 26.8386 28H25.4252C24.1106 28 23.6617 28.0102 23.269 28.1295C22.8916 28.2441 22.5405 28.4319 22.2359 28.6824C21.9188 28.943 21.6613 29.3108 20.9321 30.4046L20.8321 30.5547C20.6466 30.8329 20.3344 31 20 31C19.6656 31 19.3534 30.8329 19.168 30.5547L19.0679 30.4046C18.3387 29.3108 18.0812 28.943 17.7641 28.6824C17.4595 28.4319 17.1084 28.2441 16.731 28.1295C16.3383 28.0102 15.8894 28 14.5748 28H13.1614C12.6343 28 12.1795 28 11.805 27.9694C11.4096 27.9371 11.0164 27.8658 10.638 27.673C10.0735 27.3854 9.6146 26.9265 9.32698 26.362C9.13419 25.9836 9.06287 25.5904 9.03057 25.195C8.99997 24.8205 8.99998 24.3657 9 23.8385V15.1615C8.99998 14.6343 8.99997 14.1795 9.03057 13.805C9.06287 13.4096 9.13419 13.0164 9.32698 12.638C9.6146 12.0735 10.0735 11.6146 10.638 11.327C11.0164 11.1342 11.4096 11.0629 11.805 11.0306C12.1795 11 12.6343 11 13.1615 11ZM19 18.4C19 17.2634 18.9992 16.4711 18.9488 15.8542C18.8994 15.2491 18.8072 14.9014 18.673 14.638C18.3854 14.0735 17.9265 13.6146 17.362 13.327C17.0986 13.1928 16.7509 13.1006 16.1458 13.0512C15.5289 13.0008 14.7366 13 13.6 13H13.2C12.6234 13 12.2512 13.0008 11.9678 13.0239C11.6962 13.0461 11.5955 13.0838 11.546 13.109C11.3578 13.2049 11.2049 13.3578 11.109 13.546C11.0838 13.5955 11.0461 13.6962 11.0239 13.9678C11.0008 14.2512 11 14.6234 11 15.2V23.8C11 24.3766 11.0008 24.7488 11.0239 25.0322C11.0461 25.3038 11.0838 25.4045 11.109 25.454C11.2049 25.6422 11.3578 25.7951 11.546 25.891C11.5955 25.9162 11.6962 25.9539 11.9678 25.9761C12.2512 25.9992 12.6234 26 13.2 26H14.5748C14.6247 26 14.6739 26 14.7224 26C15.8321 25.9996 16.5994 25.9993 17.3122 26.2158C17.9271 26.4025 18.5002 26.706 19 27.1095V18.4ZM21 27.1095C21.4998 26.706 22.0729 26.4025 22.6878 26.2158C23.4006 25.9993 24.1679 25.9996 25.2776 26C25.3261 26 25.3753 26 25.4252 26H26.8C27.3766 26 27.7488 25.9992 28.0322 25.9761C28.3038 25.9539 28.4046 25.9162 28.454 25.891C28.6422 25.7951 28.7951 25.6422 28.891 25.454C28.9162 25.4045 28.9539 25.3038 28.9761 25.0322C28.9992 24.7488 29 24.3766 29 23.8V15.2C29 14.6234 28.9992 14.2512 28.9761 13.9678C28.9539 13.6962 28.9162 13.5955 28.891 13.546C28.7951 13.3578 28.6422 13.2049 28.454 13.109C28.4046 13.0838 28.3038 13.0461 28.0322 13.0239C27.7488 13.0008 27.3766 13 26.8 13H26.4C25.2634 13 24.4711 13.0008 23.8542 13.0512C23.2491 13.1006 22.9014 13.1928 22.638 13.327C22.0735 13.6146 21.6146 14.0735 21.327 14.638C21.1928 14.9014 21.1006 15.2491 21.0512 15.8542C21.0008 16.4711 21 17.2634 21 18.4V27.1095Z" fill="#283FEE"></path></svg>