<svg xmlns="http://www.w3.org/2000/svg" width="40" height="40" viewBox="0 0 40 40" fill="none"><rect width="40" height="40" rx="8" fill="#FFD8D5"></rect><path fill-rule="evenodd" clip-rule="evenodd" d="M18.5681 10H21.4319C21.6843 9.99997 21.9301 9.99994 22.1382 10.017C22.3668 10.0356 22.6366 10.0797 22.908 10.218C23.2843 10.4097 23.5903 10.7157 23.782 11.092C23.9203 11.3634 23.9644 11.6332 23.9831 11.8618C24.0001 12.0699 24 12.3157 24 12.5681L24 15.4C24 15.6965 24.0008 15.8588 24.0103 15.9754C24.0107 15.98 24.0111 15.9844 24.0115 15.9886C24.0156 15.9889 24.02 15.9893 24.0246 15.9897C24.1412 15.9992 24.3035 16 24.6 16L27.4319 16C27.6843 16 27.9301 15.9999 28.1382 16.017C28.3668 16.0356 28.6366 16.0797 28.908 16.218C29.2843 16.4097 29.5903 16.7157 29.782 17.092C29.9203 17.3634 29.9644 17.6332 29.9831 17.8618C30.0001 18.0699 30 18.3157 30 18.5681V21.4319C30 21.6843 30.0001 21.9301 29.9831 22.1382C29.9644 22.3668 29.9203 22.6366 29.782 22.908C29.5903 23.2843 29.2843 23.5903 28.908 23.782C28.6366 23.9203 28.3668 23.9644 28.1382 23.9831C27.9301 24.0001 27.6843 24 27.4319 24L24.6 24C24.3035 24 24.1412 24.0008 24.0246 24.0103C24.02 24.0107 24.0156 24.0111 24.0115 24.0115C24.0111 24.0156 24.0107 24.02 24.0103 24.0246C24.0008 24.1412 24 24.3035 24 24.6L24 27.4319C24 27.6843 24.0001 27.9301 23.9831 28.1382C23.9644 28.3668 23.9203 28.6366 23.782 28.908C23.5903 29.2843 23.2843 29.5903 22.908 29.782C22.6366 29.9203 22.3668 29.9644 22.1382 29.9831C21.9301 30.0001 21.6843 30 21.4319 30H18.5681C18.3157 30 18.0699 30.0001 17.8618 29.9831C17.6332 29.9644 17.3634 29.9203 17.092 29.782C16.7157 29.5903 16.4097 29.2843 16.218 28.908C16.0797 28.6366 16.0356 28.3668 16.017 28.1382C15.9999 27.9301 16 27.6843 16 27.4319L16 24.6C16 24.3035 15.9992 24.1412 15.9897 24.0246C15.9893 24.02 15.9889 24.0156 15.9886 24.0115C15.9844 24.0111 15.98 24.0107 15.9754 24.0103C15.8588 24.0008 15.6965 24 15.4 24L12.5681 24C12.3157 24 12.0699 24.0001 11.8618 23.9831C11.6332 23.9644 11.3634 23.9203 11.092 23.782C10.7157 23.5903 10.4097 23.2843 10.218 22.908C10.0797 22.6366 10.0356 22.3668 10.017 22.1382C9.99994 21.9301 9.99997 21.6843 10 21.4319V18.5681C9.99997 18.3157 9.99994 18.0699 10.017 17.8618C10.0356 17.6332 10.0797 17.3634 10.218 17.092C10.4097 16.7157 10.7157 16.4097 11.092 16.218C11.3634 16.0797 11.6332 16.0356 11.8618 16.0169C12.0699 15.9999 12.3157 16 12.5681 16C12.5787 16 12.5894 16 12.6 16H15.4C15.6965 16 15.8588 15.9992 15.9754 15.9897C15.98 15.9893 15.9844 15.9889 15.9886 15.9886C15.9889 15.9844 15.9893 15.98 15.9897 15.9754C15.9992 15.8588 16 15.6965 16 15.4V12.6C16 12.5894 16 12.5787 16 12.5681C16 12.3157 15.9999 12.0699 16.017 11.8618C16.0356 11.6332 16.0797 11.3634 16.218 11.092C16.4097 10.7157 16.7157 10.4097 17.092 10.218C17.3634 10.0797 17.6332 10.0356 17.8618 10.017C18.0699 9.99994 18.3157 9.99997 18.5681 10ZM18.0115 12.0115C18.0111 12.0156 18.0107 12.02 18.0103 12.0246C18.0008 12.1412 18 12.3035 18 12.6V15.4C18 15.4106 18 15.4213 18 15.4319C18 15.6843 18.0001 15.9301 17.9831 16.1382C17.9644 16.3668 17.9203 16.6366 17.782 16.908C17.5903 17.2843 17.2843 17.5903 16.908 17.782C16.6366 17.9203 16.3668 17.9644 16.1382 17.9831C15.9301 18.0001 15.6843 18 15.4319 18C15.4213 18 15.4106 18 15.4 18H12.6C12.3035 18 12.1412 18.0008 12.0246 18.0103C12.02 18.0107 12.0156 18.0111 12.0115 18.0115C12.0111 18.0156 12.0107 18.02 12.0103 18.0246C12.0008 18.1412 12 18.3035 12 18.6V21.4C12 21.6965 12.0008 21.8588 12.0103 21.9754C12.0107 21.98 12.0111 21.9844 12.0115 21.9886C12.0156 21.9889 12.02 21.9893 12.0246 21.9897C12.1412 21.9992 12.3035 22 12.6 22L15.4319 22C15.6843 22 15.9301 21.9999 16.1382 22.0169C16.3668 22.0356 16.6366 22.0797 16.908 22.218C17.2843 22.4097 17.5903 22.7157 17.782 23.092C17.9203 23.3634 17.9644 23.6332 17.9831 23.8618C18.0001 24.0699 18 24.3157 18 24.5681L18 27.4C18 27.6965 18.0008 27.8588 18.0103 27.9754C18.0107 27.98 18.0111 27.9844 18.0115 27.9885C18.0156 27.9889 18.02 27.9893 18.0246 27.9897C18.1412 27.9992 18.3035 28 18.6 28H21.4C21.6965 28 21.8588 27.9992 21.9754 27.9897C21.98 27.9893 21.9844 27.9889 21.9886 27.9885C21.9889 27.9844 21.9893 27.98 21.9897 27.9754C21.9992 27.8588 22 27.6965 22 27.4L22 24.5681C22 24.3157 21.9999 24.0699 22.0169 23.8618C22.0356 23.6332 22.0797 23.3634 22.218 23.092C22.4097 22.7157 22.7157 22.4097 23.092 22.218C23.3634 22.0797 23.6332 22.0356 23.8618 22.0169C24.0699 21.9999 24.3157 22 24.5681 22L27.4 22C27.6965 22 27.8588 21.9992 27.9754 21.9897C27.98 21.9893 27.9844 21.9889 27.9886 21.9885C27.9889 21.9844 27.9893 21.98 27.9897 21.9754C27.9992 21.8588 28 21.6965 28 21.4V18.6C28 18.3035 27.9992 18.1412 27.9897 18.0246C27.9893 18.02 27.9889 18.0156 27.9885 18.0115C27.9844 18.0111 27.98 18.0107 27.9754 18.0103C27.8588 18.0008 27.6965 18 27.4 18L24.5681 18C24.3157 18 24.0699 18.0001 23.8618 17.9831C23.6332 17.9644 23.3634 17.9203 23.092 17.782C22.7157 17.5903 22.4097 17.2843 22.218 16.908C22.0797 16.6366 22.0356 16.3668 22.0169 16.1382C21.9999 15.9301 22 15.6843 22 15.4319L22 12.6C22 12.3035 21.9992 12.1412 21.9897 12.0246C21.9893 12.02 21.9889 12.0156 21.9886 12.0115C21.9844 12.0111 21.98 12.0107 21.9754 12.0103C21.8588 12.0008 21.6965 12 21.4 12H18.6C18.3035 12 18.1412 12.0008 18.0246 12.0103C18.02 12.0107 18.0156 12.0111 18.0115 12.0115Z" fill="#EF4136"></path></svg>