<svg xmlns="http://www.w3.org/2000/svg" width="40" height="40" viewBox="0 0 40 40" fill="none"><rect width="40" height="40" rx="8" fill="#FFF5E9"></rect><path fill-rule="evenodd" clip-rule="evenodd" d="M15.7588 10H24.2414C25.0464 9.99999 25.7107 9.99998 26.2519 10.0442C26.814 10.0901 27.3307 10.1887 27.8161 10.436C28.5687 10.8195 29.1806 11.4314 29.5641 12.184C29.8114 12.6694 29.91 13.1861 29.9559 13.7482C30.0001 14.2894 30.0001 14.9537 30.0001 15.7587V21.2413C30.0001 22.0463 30.0001 22.7106 29.9559 23.2518C29.91 23.8139 29.8114 24.3306 29.5641 24.816C29.1806 25.5686 28.5687 26.1805 27.8161 26.564C27.3307 26.8113 26.814 26.9099 26.2519 26.9558C25.7107 27 25.0464 27 24.2414 27H21.6838C21.0197 27 20.8263 27.0047 20.6504 27.0408C20.4738 27.0771 20.303 27.137 20.1425 27.219C19.9826 27.3007 19.8286 27.4178 19.31 27.8327L16.8969 29.7632C16.7132 29.9102 16.526 30.06 16.3614 30.1689C16.2039 30.273 15.8987 30.4593 15.5017 30.4597C15.0449 30.4602 14.6128 30.2525 14.3278 29.8955C14.0801 29.5852 14.0349 29.2305 14.0178 29.0425C14 28.846 14 28.6062 14.0001 28.371L14.0001 26.9918C13.6083 26.9789 13.2723 26.9461 12.9648 26.8637C11.5845 26.4938 10.5063 25.4156 10.1364 24.0353C9.9993 23.5236 9.99962 22.933 10 22.1376C10.0001 22.0924 10.0001 22.0465 10.0001 22L10.0001 15.7587C10.0001 14.9537 10.0001 14.2894 10.0443 13.7482C10.0902 13.1861 10.1888 12.6694 10.4361 12.184C10.8196 11.4314 11.4315 10.8195 12.1841 10.436C12.6695 10.1887 13.1862 10.0901 13.7483 10.0442C14.2895 9.99998 14.9538 9.99999 15.7588 10ZM13.9111 12.0376C13.4727 12.0734 13.2485 12.1383 13.0921 12.218C12.7158 12.4097 12.4098 12.7157 12.2181 13.092C12.1384 13.2484 12.0735 13.4726 12.0376 13.911C12.0009 14.3611 12.0001 14.9434 12.0001 15.8V22C12.0001 22.9944 12.0087 23.2954 12.0682 23.5176C12.2532 24.2078 12.7923 24.7469 13.4825 24.9319C13.7047 24.9914 14.0057 25 15.0001 25C15.5524 25 16.0001 25.4477 16.0001 26V27.9194L18.0606 26.271C18.0834 26.2528 18.1058 26.2348 18.1279 26.2171C18.55 25.8791 18.8691 25.6237 19.2326 25.4379C19.5536 25.274 19.8952 25.1541 20.2483 25.0817C20.6482 24.9996 21.0569 24.9998 21.5976 25C21.626 25 21.6547 25 21.6838 25H24.2001C25.0567 25 25.639 24.9992 26.0891 24.9624C26.5275 24.9266 26.7517 24.8617 26.9081 24.782C27.2844 24.5903 27.5904 24.2843 27.7821 23.908C27.8618 23.7516 27.9267 23.5274 27.9625 23.089C27.9993 22.6389 28.0001 22.0566 28.0001 21.2V15.8C28.0001 14.9434 27.9993 14.3611 27.9625 13.911C27.9267 13.4726 27.8618 13.2484 27.7821 13.092C27.5904 12.7157 27.2844 12.4097 26.9081 12.218C26.7517 12.1383 26.5275 12.0734 26.0891 12.0376C25.639 12.0008 25.0567 12 24.2001 12H15.8001C14.9435 12 14.3612 12.0008 13.9111 12.0376ZM20.0001 14.5C20.5524 14.5 21.0001 14.9477 21.0001 15.5V17.5H23.0001C23.5524 17.5 24.0001 17.9477 24.0001 18.5C24.0001 19.0523 23.5524 19.5 23.0001 19.5H21.0001V21.5C21.0001 22.0523 20.5524 22.5 20.0001 22.5C19.4478 22.5 19.0001 22.0523 19.0001 21.5V19.5H17.0001C16.4478 19.5 16.0001 19.0523 16.0001 18.5C16.0001 17.9477 16.4478 17.5 17.0001 17.5H19.0001V15.5C19.0001 14.9477 19.4478 14.5 20.0001 14.5Z" fill="#F29D38"></path></svg>