<svg xmlns="http://www.w3.org/2000/svg" width="40" height="40" viewBox="0 0 40 40" fill="none"><rect width="40" height="40" rx="8" fill="#D6DBFF"></rect><path fill-rule="evenodd" clip-rule="evenodd" d="M13.7569 15.7733C12.0901 17.1876 10.9236 18.8495 10.3342 19.7984C10.2951 19.8614 10.2677 19.9055 10.2449 19.9437C10.2298 19.969 10.2198 19.9865 10.2132 19.9986C10.2132 19.9991 10.2132 19.9995 10.2132 20C10.2132 20.0005 10.2132 20.0009 10.2132 20.0014C10.2198 20.0135 10.2298 20.031 10.2449 20.0563C10.2677 20.0945 10.2951 20.1386 10.3342 20.2016C10.9236 21.1505 12.0901 22.8124 13.7569 24.2267C15.4212 25.6388 17.5176 26.75 20 26.75C22.4824 26.75 24.5788 25.6388 26.2431 24.2267C27.9099 22.8124 29.0764 21.1505 29.6658 20.2016C29.7049 20.1386 29.7323 20.0945 29.7551 20.0563C29.7702 20.031 29.7802 20.0135 29.7868 20.0014C29.7868 20.0009 29.7868 20.0005 29.7868 20C29.7868 19.9995 29.7868 19.9991 29.7868 19.9986C29.7802 19.9865 29.7702 19.969 29.7551 19.9437C29.7323 19.9055 29.7049 19.8614 29.6658 19.7984C29.0764 18.8495 27.9099 17.1876 26.2431 15.7733C24.5788 14.3612 22.4824 13.25 20 13.25C17.5176 13.25 15.4212 14.3612 13.7569 15.7733ZM12.3388 14.0459C14.2517 12.4228 16.8333 11 20 11C23.1667 11 25.7483 12.4228 27.6612 14.0459C29.5714 15.6667 30.8811 17.5411 31.537 18.597C31.5457 18.6109 31.5546 18.6251 31.5637 18.6397C31.6938 18.848 31.8628 19.1184 31.9483 19.4973C32.0172 19.8033 32.0172 20.1967 31.9483 20.5027C31.8628 20.8816 31.6938 21.152 31.5637 21.3603C31.5546 21.3749 31.5457 21.3891 31.537 21.403C30.8811 22.4589 29.5714 24.3333 27.6612 25.9541C25.7483 27.5772 23.1667 29 20 29C16.8333 29 14.2517 27.5772 12.3388 25.9541C10.4286 24.3333 9.11889 22.4589 8.46296 21.403C8.4543 21.3891 8.4454 21.3749 8.43631 21.3603C8.30616 21.152 8.13716 20.8816 8.05173 20.5027C7.98276 20.1967 7.98276 19.8033 8.05173 19.4973C8.13716 19.1184 8.30616 18.848 8.43631 18.6397C8.4454 18.6251 8.4543 18.6109 8.46296 18.597C9.11889 17.5411 10.4286 15.6667 12.3388 14.0459ZM20 17.75C18.7777 17.75 17.7868 18.7574 17.7868 20C17.7868 21.2426 18.7777 22.25 20 22.25C21.2223 22.25 22.2132 21.2426 22.2132 20C22.2132 18.7574 21.2223 17.75 20 17.75ZM15.5737 20C15.5737 17.5147 17.5554 15.5 20 15.5C22.4446 15.5 24.4263 17.5147 24.4263 20C24.4263 22.4853 22.4446 24.5 20 24.5C17.5554 24.5 15.5737 22.4853 15.5737 20Z" fill="#283FEE"></path></svg>